<?xml version="1.0" encoding="utf-8"?>
<!-- Generator: Adobe Illustrator 25.2.1, SVG Export Plug-In . SVG Version: 6.00 Build 0)  -->
<svg version="1.1" id="Layer_1" xmlns="http://www.w3.org/2000/svg" xmlns:xlink="http://www.w3.org/1999/xlink" x="0px" y="0px"
	 viewBox="0 0 181.39 47.45" style="enable-background:new 0 0 181.39 47.45;" xml:space="preserve">
<style type="text/css">
	.st0{fill:url(#SVGID_1_);}
	.st1{fill:#071F38;}
	.st2{fill:#939598;}
</style>
<g>
	<linearGradient id="SVGID_1_" gradientUnits="userSpaceOnUse" x1="32.1292" y1="7.9595" x2="16.9729" y2="47.2279">
		<stop  offset="0" style="stop-color:#7EC242"/>
		<stop  offset="0.8185" style="stop-color:#071F38"/>
	</linearGradient>
	<path class="st0" d="M47.84,21.18c-0.68,1.92-1.32,3.84-1.99,5.76c-0.06,0.18-0.03,0.52-0.33,0.45c-0.22-0.05-0.21-0.35-0.22-0.56
		c-0.09-1.21-0.18-2.42-0.27-3.63c-0.14-1.92-0.26-3.85-0.4-5.78c-0.06-0.27-0.04-0.56,0.22-0.68c0.27-0.12,0.48,0.08,0.68,0.26
		c0.58,0.51,1.18,1.01,1.76,1.53C48.13,19.27,48.19,20.18,47.84,21.18z M44.35,11.61c0.31-0.08,0.38,0.36,0.49,0.59
		c0.7,1.38,1.38,2.77,2.07,4.17c0.08,0.16,0.28,0.36,0.06,0.51c-0.13,0.09-0.31-0.07-0.44-0.18c-0.58-0.51-1.17-1.01-1.75-1.53
		c-0.32-0.28-0.37-0.68-0.41-1.06c-0.07-0.58-0.1-1.16-0.15-1.76C44.29,12.1,44.05,11.69,44.35,11.61z M43.71,17.62
		c0.27,3.4,0.53,6.8,0.8,10.2c0,0.26,0,0.52,0,0.78c0,0.79-0.36,1.05-1.13,0.8c-1.48-0.49-2.96-0.99-4.43-1.49
		c-0.49-0.17-0.99-0.31-1.48-0.49c-0.94-0.35-1.11-0.87-0.53-1.69c1.42-2.01,2.86-4.02,4.28-6.02c0.55-0.77,1.11-1.54,1.65-2.32
		c0.14-0.21,0.29-0.4,0.56-0.35C43.78,17.1,43.69,17.4,43.71,17.62z M10.22,32.6c-1.04-0.05-1.25-0.47-0.66-1.32
		c1.99-2.82,3.99-5.63,6-8.43c0.57-0.8,1.06-0.76,1.48,0.11c1.41,2.91,2.82,5.81,4.23,8.72c0.49,1.02,0.25,1.38-0.89,1.35
		c-0.3-0.01-0.61,0-0.91,0c0-0.01,0-0.03,0-0.04C16.38,32.86,13.3,32.74,10.22,32.6z M16.41,9.96c-0.09,2.89-0.19,5.77-0.29,8.66
		c-0.04,1.1-0.44,1.41-1.49,1.07c-1.92-0.62-3.82-1.26-5.73-1.92c-0.97-0.34-1.08-0.87-0.39-1.65c2.29-2.57,4.57-5.15,6.86-7.72
		c0.07-0.08,0.14-0.17,0.22-0.24c0.19-0.16,0.33-0.46,0.64-0.32c0.29,0.13,0.25,0.43,0.24,0.69C16.46,9.01,16.43,9.48,16.41,9.96
		C16.4,9.96,16.4,9.96,16.41,9.96z M29.35,12.42c-0.28,0.8-0.82,0.97-1.51,0.49c-2.81-1.93-5.62-3.88-8.42-5.83
		c-0.2-0.14-0.51-0.3-0.44-0.59c0.08-0.31,0.42-0.33,0.71-0.35c2.71-0.19,5.42-0.37,8.13-0.56c0.82-0.06,1.64-0.14,2.47-0.22
		c1.03-0.06,1.35,0.38,1.02,1.35C30.65,8.61,30.02,10.52,29.35,12.42z M29.57,16.18c1.46,3,2.91,6,4.36,8.99
		c0.12,0.24,0.22,0.52,0.06,0.74c-0.2,0.28-0.52,0.14-0.78,0.05c-2.69-0.9-5.37-1.81-8.06-2.72c-2.01-0.68-4.03-1.35-6.04-2.02
		c-0.1-0.03-0.21-0.07-0.3-0.12c-0.19-0.1-0.43-0.15-0.45-0.41c-0.03-0.29,0.17-0.42,0.39-0.54c1.27-0.65,2.54-1.3,3.82-1.95
		c1.66-0.84,3.32-1.67,4.98-2.52c0.29-0.15,0.6-0.26,0.87-0.3C28.99,15.43,29.35,15.72,29.57,16.18z M27.01,13.39
		c0.91,0.61,0.75,1.24-0.1,1.65c-2.86,1.39-5.69,2.86-8.53,4.31c-0.98,0.5-1.38,0.26-1.35-0.82c0.01-0.28,0.01-0.57,0.02-0.85
		c0-0.26,0-0.52,0-0.78c0.01,0,0.02,0,0.02,0c0.09-2.87,0.17-5.74,0.27-8.6c0.01-0.36-0.03-0.77,0.4-0.96
		c0.38-0.16,0.65,0.09,0.94,0.29C21.45,9.55,24.21,11.5,27.01,13.39z M17.92,22.74c-0.11-0.24-0.22-0.51-0.01-0.73
		c0.19-0.2,0.45-0.11,0.67-0.03c2.77,0.93,5.55,1.86,8.32,2.8c1.95,0.66,3.9,1.32,5.85,1.98c0.1,0.03,0.21,0.07,0.31,0.11
		c0.2,0.08,0.42,0.15,0.45,0.41c0.03,0.29-0.17,0.42-0.39,0.53c-1.06,0.54-2.12,1.08-3.19,1.62c-1.91,0.97-3.83,1.94-5.74,2.92
		c-0.24,0.12-0.48,0.2-0.78,0.2c-0.55,0.03-0.89-0.3-1.13-0.78C20.83,28.75,19.37,25.74,17.92,22.74z M22.46,35.66
		c0.32-0.93,0.87-1.1,1.69-0.53c2.74,1.9,5.49,3.81,8.23,5.71c0.23,0.16,0.56,0.32,0.5,0.62c-0.07,0.33-0.43,0.29-0.71,0.31
		c-2.84,0.21-5.67,0.42-8.51,0.63c-0.58,0.04-1.17,0.1-1.75,0.15c-1.53,0.06-1.72-0.2-1.22-1.68C21.28,39.15,21.86,37.4,22.46,35.66
		z M24.79,34.52c-0.85-0.59-0.81-1.09,0.12-1.56c2.82-1.44,5.64-2.87,8.46-4.3c0.12-0.06,0.24-0.1,0.36-0.16
		c0.76-0.33,1.12-0.09,1.12,0.72c0,1.09,0,2.17,0,3.26c-0.04,0-0.07,0-0.11,0c-0.07,2.39-0.13,4.78-0.21,7.17
		c-0.01,0.36,0.02,0.76-0.4,0.96c-0.39,0.18-0.66-0.09-0.94-0.28C30.39,38.4,27.59,36.46,24.79,34.52z M34.81,24.97
		c-1.41-2.92-2.83-5.85-4.24-8.77c-0.42-0.86-0.1-1.3,0.87-1.26c0.89,0.03,1.78,0.01,2.67,0.01c0,0.03,0,0.06,0,0.08
		c2.5,0.12,4.99,0.24,7.49,0.35c0.38,0.02,0.76,0.01,0.97,0.39c0.22,0.39-0.11,0.68-0.29,0.93c-1.37,1.97-2.77,3.91-4.16,5.87
		c-0.6,0.85-1.19,1.7-1.8,2.54C35.74,25.93,35.24,25.87,34.81,24.97z M35.41,39.39c0.11-3.34,0.22-6.69,0.34-10.03
		c0.04-1.15,0.44-1.43,1.53-1.07c1.89,0.62,3.78,1.25,5.67,1.89c0.95,0.32,1.09,0.88,0.4,1.65c-2.34,2.64-4.68,5.28-7.03,7.91
		c-0.18,0.2-0.37,0.5-0.69,0.39C35.32,40.01,35.41,39.66,35.41,39.39z M43.19,10.25c0.05,0.8,0.14,1.6,0.21,2.33
		c0.02,0.33,0,0.61-0.25,0.76c-0.3,0.19-0.5-0.09-0.67-0.24c-2.38-2.09-4.75-4.2-7.11-6.31c-0.13-0.12-0.39-0.24-0.26-0.47
		c0.13-0.22,0.33-0.07,0.52-0.01c2.08,0.71,4.17,1.41,6.25,2.12C42.71,8.74,43.13,9.35,43.19,10.25z M33.37,3.38
		c0.27-0.52,0.72-0.59,1.36-0.18c1.51,0.99,3.01,1.98,4.5,2.99c0.13,0.09,0.32,0.15,0.37,0.44c-0.75,0.04-1.35-0.38-2-0.57
		C36.39,5.71,35.2,5.26,34,4.82C33.33,4.58,33.08,3.95,33.37,3.38z M33.66,6.44c2.71,2.4,5.4,4.8,8.1,7.21
		c0.17,0.15,0.43,0.29,0.34,0.57c-0.11,0.34-0.43,0.22-0.67,0.23c-0.28,0.01-0.56,0-0.85,0c0,0,0-0.01,0-0.01
		c-3.17-0.16-6.33-0.3-9.5-0.47c-0.8-0.04-1.12-0.53-0.86-1.29c0.65-1.95,1.32-3.89,1.98-5.83C32.48,6.03,33.01,5.87,33.66,6.44z
		 M26.44,1.79c1.71,0.18,3.43,0.11,5.14,0.36c0.8,0.12,1.02,0.34,0.91,1c-0.1,0.55-0.72,0.91-1.31,0.72
		C29.86,3.45,28.55,3,27.24,2.56c-0.56-0.19-1.16-0.33-1.74-0.67C25.88,1.63,26.17,1.77,26.44,1.79z M20.5,2.6
		c0.62-0.68,1.55-0.9,2.43-0.6c1.94,0.67,3.88,1.33,5.82,2c0.08,0.03,0.17,0.03,0.25,0.07c0.15,0.07,0.37,0.12,0.32,0.34
		c-0.04,0.19-0.25,0.13-0.39,0.15c-0.67,0.07-1.34,0.14-2.01,0.19c-2.49,0.18-4.98,0.35-7.46,0.53c-0.3,0.03-0.65,0.1-0.79-0.26
		C18.56,4.72,18.83,4.51,19,4.3C19.49,3.73,20,3.16,20.5,2.6z M15.08,4.59c1.08-0.56,2.17-1.08,3.27-1.59
		c0.14-0.06,0.33-0.23,0.47-0.06c0.16,0.19-0.06,0.31-0.17,0.43c-0.5,0.57-1,1.14-1.5,1.71c-0.12,0.13-0.24,0.25-0.41,0.31
		c-1.06,0.38-2.17,0.17-3.27,0.24C13.94,5.09,14.53,4.88,15.08,4.59z M12.02,6.75c0.88-0.09,1.77-0.14,2.71-0.21
		c0.16,0.02,0.41-0.02,0.52,0.22c0.13,0.28-0.05,0.49-0.23,0.69c-1.55,1.75-3.09,3.5-4.64,5.25c-0.56,0.63-1.13,1.26-1.69,1.9
		c-0.12,0.13-0.26,0.32-0.42,0.24c-0.22-0.11-0.09-0.34-0.03-0.51c0.71-2.09,1.41-4.19,2.13-6.28C10.65,7.27,11.22,6.83,12.02,6.75z
		 M5.12,15.22c1.02-1.54,2.04-3.07,3.07-4.6c0.09-0.13,0.16-0.32,0.5-0.34c-0.58,1.73-1.14,3.39-1.71,5.05
		c-0.1,0.3-0.15,0.63-0.36,0.9c-0.33,0.42-0.97,0.54-1.4,0.26C4.82,16.22,4.77,15.75,5.12,15.22z M4.1,18.1
		c0.03-0.43,0.29-0.7,0.7-0.72c0.48-0.03,0.83,0.23,1,0.68c0.1,0.27,0.08,0.57-0.01,0.83c-0.59,1.74-1.19,3.49-1.79,5.23
		c-0.03,0.09-0.1,0.17-0.15,0.25c-0.06-0.01-0.11-0.03-0.17-0.04C3.83,22.25,3.96,20.17,4.1,18.1z M3.92,27.19
		C4.6,25.14,5.3,23.08,6,21.03c0.06-0.19,0.08-0.53,0.33-0.5c0.27,0.04,0.21,0.38,0.23,0.6c0.2,2.62,0.38,5.24,0.57,7.86
		c0.04,0.5,0.08,1,0.12,1.49c0.02,0.26,0.06,0.56-0.22,0.69c-0.27,0.13-0.49-0.05-0.69-0.23c-0.63-0.56-1.3-1.09-1.9-1.68
		C3.84,28.71,3.66,27.99,3.92,27.19z M7.55,36.37c-0.25,0.09-0.32-0.18-0.4-0.33c-0.74-1.47-1.47-2.95-2.18-4.43
		c-0.08-0.15-0.3-0.36-0.07-0.51c0.19-0.13,0.35,0.09,0.5,0.22c0.49,0.43,0.97,0.87,1.47,1.29c0.41,0.34,0.62,0.77,0.65,1.29
		c0.03,0.59,0.08,1.17,0.12,1.76c0.01,0.09,0.02,0.18,0.01,0.26C7.62,36.06,7.75,36.29,7.55,36.37z M8.13,30.26
		c-0.26-3.36-0.51-6.72-0.77-10.08c0.01,0,0.01,0,0.02,0c-0.02-0.26-0.04-0.52-0.05-0.78c-0.02-0.78,0.37-1.09,1.11-0.85
		c1.47,0.47,2.92,0.98,4.38,1.47c0.58,0.19,1.16,0.36,1.72,0.58c0.74,0.28,0.92,0.84,0.45,1.5c-1.98,2.8-3.96,5.6-5.95,8.39
		c-0.16,0.22-0.3,0.54-0.65,0.44C8.08,30.84,8.15,30.5,8.13,30.26z M8.68,37.79c-0.07-0.82-0.13-1.65-0.21-2.59
		c-0.01-0.14-0.04-0.43,0.23-0.58c0.28-0.15,0.5,0.05,0.69,0.23c2.36,2.09,4.71,4.18,7.06,6.27c0.15,0.13,0.45,0.27,0.31,0.51
		c-0.14,0.26-0.4,0.04-0.58-0.02c-2.08-0.69-4.16-1.38-6.22-2.1C9.18,39.24,8.75,38.64,8.68,37.79z M18.27,44.87
		c-0.28,0.23-0.61,0.24-0.91,0.05c-1.68-1.11-3.36-2.23-5.03-3.35c-0.07-0.05-0.13-0.12-0.08-0.26c0.43-0.02,0.81,0.19,1.21,0.33
		c1.42,0.47,2.83,0.96,4.25,1.42c0.45,0.15,0.77,0.4,0.87,0.87C18.66,44.29,18.57,44.62,18.27,44.87z M18.18,41.48
		c-2.68-2.37-5.36-4.76-8.03-7.14c-0.19-0.17-0.48-0.33-0.35-0.63c0.12-0.29,0.44-0.23,0.7-0.22c1.67,0.07,3.34,0.14,5.01,0.21
		c0,0,0,0.01,0,0.01c1.67,0.07,3.34,0.14,5.01,0.21c1.09,0.04,1.41,0.5,1.07,1.51c-0.63,1.87-1.26,3.74-1.9,5.61
		C19.4,41.91,18.86,42.08,18.18,41.48z M23.18,46.02c-0.95-0.06-1.9-0.13-2.85-0.2c-0.74-0.05-1.03-0.31-0.97-0.91
		c0.06-0.58,0.6-0.99,1.22-0.86c0.46,0.1,0.91,0.28,1.36,0.43c1.31,0.44,2.62,0.88,3.93,1.33c0.15,0.05,0.35,0.06,0.48,0.39
		C25.24,46.15,24.21,46.09,23.18,46.02z M30.93,45.72c-0.47,0.41-1.09,0.49-1.67,0.3c-2.14-0.7-4.28-1.44-6.41-2.17
		c-0.14-0.05-0.26-0.14-0.52-0.28c0.78-0.37,1.49-0.27,2.16-0.33c2.49-0.21,4.98-0.38,7.48-0.56c0.26-0.02,0.52-0.03,0.78-0.02
		c0.45,0.02,0.63,0.28,0.36,0.64C32.44,44.17,31.74,45.01,30.93,45.72z M38.07,42.7c-1.53,0.76-3.05,1.53-4.58,2.28
		c-0.14,0.07-0.35,0.18-0.47,0c-0.1-0.15,0.08-0.27,0.17-0.38c0.5-0.57,1-1.13,1.5-1.7c0.16-0.18,0.35-0.34,0.59-0.39
		c0.94-0.16,1.89-0.21,2.84-0.24c0.11,0,0.22,0.02,0.22,0.17C38.3,42.58,38.19,42.64,38.07,42.7z M39.61,41.25
		c-0.58,0.03-1.17,0.09-1.75,0.14c0-0.01,0-0.01,0-0.02c-0.26,0.01-0.52,0.05-0.78,0.04c-0.56-0.01-0.72-0.3-0.39-0.74
		c0.33-0.45,0.73-0.86,1.1-1.28c1.73-1.94,3.46-3.89,5.19-5.83c0.04-0.05,0.09-0.09,0.14-0.14c0.15-0.14,0.28-0.42,0.5-0.29
		c0.17,0.1,0.03,0.36-0.03,0.54c-0.68,2.03-1.36,4.06-2.05,6.09C41.23,40.68,40.6,41.19,39.61,41.25z M46.88,32.49
		c-1.13,1.71-2.28,3.41-3.42,5.11c-0.03,0.04-0.09,0.07-0.14,0.1c-0.04-0.02-0.09-0.05-0.13-0.07c0.35-1.04,0.69-2.07,1.04-3.11
		c0.26-0.78,0.53-1.55,0.78-2.33c0.15-0.44,0.41-0.77,0.88-0.87c0.36-0.08,0.69,0.04,0.93,0.33C47.03,31.91,47.07,32.21,46.88,32.49
		z M47.98,26.72c-0.04,0.93-0.08,1.86-0.16,2.79c-0.07,0.83-0.39,1.14-0.99,1.05c-0.61-0.09-0.99-0.69-0.77-1.4
		c0.58-1.81,1.22-3.6,1.84-5.4c0.02-0.06,0.04-0.12,0.06-0.17C48.21,24.68,48.02,25.7,47.98,26.72z"/>
	<g>
		<path class="st1" d="M62.53,15.68H76.1V6.97h3.86v21.32H76.1v-8.71H62.53v8.71h-3.86V6.97h3.86V15.68z"/>
		<path class="st1" d="M105.39,28.28h-3.86v-5.23H87.94v5.23h-3.86V17.63c0-1.56,0.27-2.99,0.8-4.3c0.54-1.31,1.28-2.43,2.23-3.37
			c0.95-0.94,2.08-1.67,3.37-2.2c1.3-0.52,2.72-0.79,4.25-0.79h8.71c0.27,0,0.52,0.05,0.76,0.15c0.24,0.1,0.45,0.24,0.62,0.42
			c0.18,0.18,0.32,0.39,0.41,0.62c0.1,0.24,0.15,0.49,0.15,0.76V28.28z M87.94,19.19h13.59v-8.35h-6.79c-0.12,0-0.37,0.02-0.75,0.05
			c-0.38,0.03-0.82,0.12-1.32,0.26c-0.5,0.14-1.03,0.35-1.58,0.64c-0.55,0.29-1.06,0.68-1.53,1.19c-0.47,0.51-0.85,1.14-1.15,1.89
			c-0.3,0.76-0.45,1.68-0.45,2.76V19.19z"/>
		<path class="st1" d="M129.24,10.83h-15.49v17.45h-3.87V8.92c0-0.27,0.05-0.52,0.15-0.76c0.1-0.24,0.24-0.45,0.41-0.62
			c0.17-0.18,0.38-0.32,0.62-0.42c0.24-0.1,0.49-0.15,0.77-0.15h17.41V10.83z M127.51,19.57h-12.22v-3.89h12.22V19.57z"/>
		<path class="st1" d="M151.62,28.28h-13.94c-0.54,0-1.12-0.09-1.75-0.28c-0.63-0.19-1.22-0.5-1.76-0.93
			c-0.54-0.43-0.99-0.99-1.35-1.68c-0.36-0.69-0.54-1.53-0.54-2.53V8.92c0-0.27,0.05-0.52,0.15-0.76c0.1-0.24,0.24-0.45,0.41-0.62
			c0.17-0.18,0.38-0.32,0.62-0.42c0.24-0.1,0.49-0.15,0.77-0.15h17.41v3.86h-15.49v12.03c0,0.51,0.13,0.89,0.4,1.16
			c0.27,0.27,0.66,0.4,1.17,0.4h13.91V28.28z M149.88,19.57h-12.2v-3.89h12.2V19.57z"/>
		<path class="st1" d="M176.65,26.63c0,0.28-0.05,0.53-0.16,0.77c-0.1,0.24-0.24,0.44-0.42,0.62c-0.17,0.17-0.38,0.31-0.62,0.41
			c-0.24,0.1-0.49,0.15-0.76,0.15c-0.24,0-0.48-0.04-0.72-0.13c-0.24-0.09-0.46-0.23-0.65-0.43l-14.12-14.75v15.01h-3.87V8.62
			c0-0.4,0.11-0.76,0.33-1.08c0.22-0.32,0.51-0.56,0.86-0.72c0.37-0.15,0.74-0.19,1.13-0.11c0.39,0.07,0.72,0.25,1,0.54l14.12,14.73
			V6.97h3.86V26.63z"/>
	</g>
	<g>
		<path class="st2" d="M62.57,31.88v0.89H60.9v8.09h-0.96v-8.09h-1.65v-0.89H62.57z"/>
		<path class="st2" d="M71.2,31.88h3.61v0.89h-2.64v3.12h2.34v0.84h-2.34v3.24h2.68v0.88H71.2V31.88z"/>
		<path class="st2" d="M86.57,33.83c0-0.14-0.02-0.29-0.06-0.44c-0.04-0.15-0.14-0.3-0.31-0.46c-0.17-0.16-0.39-0.23-0.68-0.23
			c-0.73,0-1.1,0.46-1.1,1.36v4.83c0,0.38,0.11,0.67,0.31,0.87c0.21,0.2,0.45,0.3,0.73,0.3c0.74,0,1.11-0.42,1.11-1.26v-0.28h0.97
			v0.33c0,1.43-0.71,2.14-2.13,2.14c-0.34,0-0.64-0.06-0.89-0.16s-0.49-0.29-0.72-0.54c-0.23-0.26-0.34-0.68-0.34-1.27v-5.31
			c0-0.54,0.18-1,0.54-1.38c0.36-0.38,0.84-0.57,1.46-0.57s1.11,0.16,1.49,0.47c0.38,0.31,0.56,0.81,0.56,1.48v0.58h-0.93
			L86.57,33.83z"/>
		<path class="st2" d="M97.25,31.88l2.53,6.68v-6.68h0.96v8.98h-0.96l-2.53-6.55v6.55h-0.96v-8.98H97.25z"/>
		<path class="st2" d="M109.84,34.16c0-0.41,0.04-0.76,0.12-1.05c0.08-0.29,0.26-0.56,0.52-0.81c0.37-0.36,0.88-0.54,1.51-0.54
			c0.63,0,1.14,0.18,1.52,0.54c0.26,0.24,0.44,0.51,0.52,0.81s0.12,0.65,0.12,1.05v4.44c0,0.41-0.04,0.76-0.12,1.05
			s-0.25,0.56-0.51,0.8c-0.37,0.36-0.88,0.54-1.51,0.54c-0.63,0-1.14-0.18-1.52-0.54c-0.26-0.24-0.43-0.51-0.51-0.8
			c-0.08-0.29-0.12-0.64-0.12-1.05L109.84,34.16z M113.19,33.96c0-0.41-0.11-0.72-0.32-0.93c-0.22-0.21-0.51-0.32-0.87-0.33
			c-0.36-0.01-0.65,0.1-0.87,0.32s-0.33,0.53-0.33,0.94v4.84c0,0.41,0.11,0.73,0.33,0.95c0.22,0.21,0.51,0.31,0.86,0.31
			s0.64-0.11,0.86-0.33c0.23-0.22,0.34-0.53,0.34-0.94V33.96z"/>
		<path class="st2" d="M124.25,31.88v8.09h2.83v0.88h-3.79v-8.98H124.25z"/>
		<path class="st2" d="M135.05,34.16c0-0.41,0.04-0.76,0.12-1.05c0.08-0.29,0.26-0.56,0.52-0.81c0.38-0.36,0.88-0.54,1.51-0.54
			s1.14,0.18,1.52,0.54c0.26,0.24,0.44,0.51,0.52,0.81c0.08,0.29,0.12,0.65,0.12,1.05v4.44c0,0.41-0.04,0.76-0.12,1.05
			s-0.25,0.56-0.51,0.8c-0.37,0.36-0.88,0.54-1.51,0.54s-1.14-0.18-1.52-0.54c-0.26-0.24-0.43-0.51-0.51-0.8
			c-0.08-0.29-0.12-0.64-0.12-1.05L135.05,34.16z M138.4,33.96c0-0.41-0.11-0.72-0.33-0.93c-0.22-0.21-0.51-0.32-0.87-0.33
			c-0.36-0.01-0.65,0.1-0.87,0.32S136,33.55,136,33.96v4.84c0,0.41,0.11,0.73,0.33,0.95c0.22,0.21,0.51,0.31,0.86,0.31
			s0.64-0.11,0.86-0.33c0.23-0.22,0.34-0.53,0.34-0.94V33.96z"/>
		<path class="st2" d="M150.34,40.98c-0.67,0-1.15-0.19-1.45-0.58c-0.3-0.39-0.45-0.89-0.46-1.51v-4.73c0-0.7,0.14-1.23,0.41-1.6
			c0.38-0.53,0.93-0.8,1.65-0.8c1.49,0,2.23,0.71,2.23,2.13v0.41h-0.96v-0.39c0-0.17-0.02-0.33-0.06-0.49
			c-0.04-0.16-0.16-0.31-0.34-0.47c-0.19-0.16-0.44-0.24-0.77-0.24c-0.8,0-1.19,0.5-1.19,1.5v4.38c0,0.98,0.39,1.48,1.16,1.48
			c0.81,0,1.21-0.55,1.21-1.65v-1.44h-1.15v-0.83h2.1v4.73h-0.55l-0.26-0.72c-0.16,0.3-0.39,0.51-0.69,0.65
			C150.93,40.92,150.64,40.99,150.34,40.98L150.34,40.98z"/>
		<path class="st2" d="M162.86,31.88v8.98h-0.96v-8.98H162.86z"/>
		<path class="st2" d="M175.53,40.86l-0.45-2h-2.02l-0.44,2h-0.93l1.95-8.98h0.87l1.97,8.98H175.53z M174.04,33.81l-0.86,4.22h1.76
			L174.04,33.81z"/>
	</g>
</g>
</svg>
